<?xml version="1.0" encoding="UTF-8"?>
<svg version="1.1" xmlns="http://www.w3.org/2000/svg" width="329" height="322">
<path d="M0 0 C7.32659974 0.26351228 12.7357206 1.76320143 19.125 5.3125 C19.93831787 5.75327881 20.75163574 6.19405762 21.58959961 6.64819336 C41.01712367 17.48244677 66.26336668 35.83600042 72.89160156 57.97851562 C75.08750384 67.03436526 75.28037533 75.75428963 75 85 C74.91956125 87.70874301 74.86027352 90.41517952 74.8125 93.125 C74.77769531 94.30320312 74.74289063 95.48140625 74.70703125 96.6953125 C75.04671264 100.52691862 75.86461653 102.8038729 78 106 C82.97335889 108.84206578 88.36463239 108.3676721 93.9375 108.375 C95.40219727 108.41173828 95.40219727 108.41173828 96.89648438 108.44921875 C102.81213637 108.47328242 106.49017326 108.17739167 111 104 C117.00202867 97.28721515 121.94793954 89.82782257 126.875 82.3125 C127.57407471 81.25595215 128.27314941 80.1994043 128.9934082 79.11083984 C131.50087563 75.32021922 133.99902494 71.52353571 136.49462891 67.72509766 C175.30952731 8.68292135 175.30952731 8.68292135 204 2 C216.37668251 -0.38848259 227.1444805 1.47697476 237.78125 8.34375 C246.0335697 14.50393231 251.13236433 24.13885654 252.78125 34.23828125 C254.12473701 51.19980476 247.92876685 66.16778844 237 79 C234.45355479 81.46963828 231.70356771 83.70435422 229 86 C228.08347656 86.81597656 227.16695313 87.63195312 226.22265625 88.47265625 C209.2679852 103.44120086 189.24930055 116.91189516 167 122 C165.33707935 122.40037673 163.6743312 122.80147036 162.01171875 123.203125 C151.39334747 125.72212351 140.75383455 127.88689358 129.96875 129.56835938 C129.09863281 129.71337891 128.22851562 129.85839844 127.33203125 130.0078125 C126.56608643 130.12785645 125.8001416 130.24790039 125.01098633 130.37158203 C120.64280505 131.73660554 119.1057099 135.35671164 117.06640625 139.20703125 C116.5053418 140.25850342 115.94427734 141.30997559 115.36621094 142.39331055 C114.77098633 143.52164307 114.17576172 144.64997559 113.5625 145.8125 C112.30939849 148.16970419 111.05550125 150.52647092 109.80078125 152.8828125 C109.48442719 153.47831406 109.16807312 154.07381561 108.84213257 154.68736267 C106.75884449 158.60189121 104.63443154 162.49115251 102.48046875 166.3671875 C101.66243774 167.84288208 101.66243774 167.84288208 100.82788086 169.34838867 C99.80145183 171.19526214 98.76997472 173.03934212 97.73266602 174.88012695 C97.03741821 176.13635864 97.03741821 176.13635864 96.328125 177.41796875 C95.9249707 178.13750732 95.52181641 178.8570459 95.10644531 179.59838867 C93.70181527 182.64722931 92.86125044 185.76096012 92 189 C99.43536984 191.00427806 106.87379651 192.99688449 114.31445312 194.98144531 C116.84479327 195.65780225 119.37442425 196.33681817 121.90332031 197.01855469 C125.54047975 197.99855915 129.18009054 198.96894212 132.8203125 199.9375 C133.94865509 200.24373291 135.07699768 200.54996582 136.23953247 200.86547852 C137.30017914 201.14576904 138.36082581 201.42605957 139.45361328 201.71484375 C140.38182892 201.96355225 141.31004456 202.21226074 142.26638794 202.46850586 C146.91116902 203.37158716 150.76489652 203.56258958 154.91796875 201.171875 C155.60987305 200.78580078 156.30177734 200.39972656 157.01464844 200.00195312 C158.09020996 199.38223633 158.09020996 199.38223633 159.1875 198.75 C172.49041812 191.38947301 185.67926325 186.44344713 201.125 189.6484375 C219.33077187 195.31353141 235.95343666 206.97092038 245.1953125 223.8828125 C252.48038218 238.07179489 256.14413143 253.50330574 256.16796875 269.4609375 C256.17129715 270.25094147 256.17462555 271.04094543 256.17805481 271.85488892 C256.18309033 273.5171857 256.18546419 275.17949247 256.18530273 276.84179688 C256.18748773 279.3608494 256.20567526 281.87946229 256.22460938 284.3984375 C256.22754447 286.02343602 256.22952849 287.6484366 256.23046875 289.2734375 C256.23765427 290.01435638 256.24483978 290.75527527 256.25224304 291.51864624 C256.21963931 299.12209348 255.52184638 306.89504552 249.9765625 312.55859375 C233.80328746 324.35293859 197.59060581 316.62500759 179.31469727 313.78540039 C152.36462044 309.15466334 128.82110543 297.39516227 112.77734375 274.765625 C106.27502387 264.64772945 106.05854023 252.85154521 108.140625 241.203125 C110.25384405 233.32658125 114.54239299 226.31065176 119.1171875 219.62109375 C120.23912947 217.86853858 120.23912947 217.86853858 120 215 C106.38014766 212.6024979 92.72196915 210.71203493 79 209 C78.73896484 209.8677002 78.47792969 210.73540039 78.20898438 211.62939453 C76.99075462 215.02577579 75.50466954 217.83583285 73.65625 220.9296875 C72.99222168 222.04666016 72.32819336 223.16363281 71.64404297 224.31445312 C70.92979509 225.50156278 70.21510501 226.68840648 69.5 227.875 C68.76558073 229.10078744 68.0313698 230.32669973 67.29736328 231.55273438 C65.85273665 233.96200692 64.40359181 236.36846909 62.95019531 238.77246094 C61.79465722 240.68485623 60.64185772 242.59891801 59.49511719 244.51660156 C50.31368963 259.87018271 39.97504314 274.45579973 27.5234375 287.3359375 C25.00178159 289.91482167 25.00178159 289.91482167 22.98046875 292.578125 C14.49592472 302.95370152 1.23182494 311.44204376 -11.75 314.6875 C-24.86960494 315.94900047 -35.59419718 314.56834693 -46 306 C-55.11917247 297.29533537 -58.952431 287.49380429 -59.4375 275 C-59.2368018 262.43127505 -55.65643069 251.3165071 -47 242 C-46.50113281 241.36320313 -46.00226562 240.72640625 -45.48828125 240.0703125 C-32.15369874 223.34330471 -10.35520171 212.16656751 9 204 C9.71671875 203.69610352 10.4334375 203.39220703 11.171875 203.07910156 C25.01773117 197.32840687 39.35967826 194.0643666 54 191 C54.93183105 190.79842285 55.86366211 190.5968457 56.82373047 190.38916016 C57.69529785 190.20530762 58.56686523 190.02145508 59.46484375 189.83203125 C60.60167603 189.58996948 60.60167603 189.58996948 61.76147461 189.34301758 C64.20425955 188.96870055 66.53244673 188.94210939 69 189 C69.39940796 187.93857788 69.39940796 187.93857788 69.80688477 186.85571289 C71.05394023 183.87089444 72.5084833 181.13020956 74.08984375 178.30859375 C74.70448486 177.20789551 75.31912598 176.10719727 75.95239258 174.97314453 C76.43864609 174.10716644 76.43864609 174.10716644 76.9347229 173.22369385 C77.94726417 171.4201076 78.955994 169.61444014 79.96362305 167.80810547 C81.32399247 165.36969709 82.68540152 162.93187536 84.04785156 160.49462891 C86.81412524 155.54437452 89.56868524 150.58773809 92.3125 145.625 C92.98623657 144.41541626 92.98623657 144.41541626 93.67358398 143.18139648 C95.69477915 139.52165004 97.5775221 135.94521495 99 132 C88.70361673 126.47246793 75.57505933 124.0303214 64 126 C59.76262672 128.08287009 56.49302164 130.85158139 53 134 C51.15288952 135.55011387 49.29867835 137.09180553 47.4375 138.625 C46.52871094 139.37394531 45.61992188 140.12289062 44.68359375 140.89453125 C40.6639357 144.04823677 36.53465853 146.65424111 32 149 C30.86304687 149.62068359 30.86304687 149.62068359 29.703125 150.25390625 C15.33951422 156.81816786 -3.4604195 153.65068374 -18 149 C-18.67224609 148.78569336 -19.34449219 148.57138672 -20.03710938 148.35058594 C-35.969914 143.11334346 -49.6475785 135.04003342 -63 125 C-61.54217054 120.70531323 -59.35070059 117.61985938 -56.5625 114.0625 C-53.52315326 110.18195021 -51.07512226 106.47719305 -49 102 C-49.34256836 101.50709473 -49.68513672 101.01418945 -50.03808594 100.50634766 C-51.61891702 98.21942625 -53.18442538 95.92238974 -54.75 93.625 C-55.28882813 92.85027344 -55.82765625 92.07554688 -56.3828125 91.27734375 C-63.45957694 80.8348011 -66.18499238 71.59021133 -66.25 59.125 C-66.270625 58.14402344 -66.29125 57.16304687 -66.3125 56.15234375 C-66.34183468 50.71809506 -66.24535653 46.59519508 -63 42 C-52.48531444 33.1723722 -38.99519564 30.87737602 -25.76953125 30.5703125 C-20.50122781 30.3578095 -16.61820754 29.62740128 -12 27 C-8.61210619 22.87896288 -7.19461486 17.36293896 -5.4375 12.375 C-4.83572612 10.67316813 -4.23039839 8.97258769 -3.62109375 7.2734375 C-3.3573999 6.52497559 -3.09370605 5.77651367 -2.82202148 5.00537109 C-2 3 -2 3 0 0 Z M181.65234375 38.0078125 C179.96540965 40.04170468 178.18026649 41.94587947 176.375 43.875 C165.58231678 56.10124645 156.8680514 70.08673993 147.9375 83.6875 C147.47461578 84.39190216 147.01173157 85.09630432 146.53482056 85.822052 C145.19598529 87.86249172 143.86083595 89.90528397 142.52734375 91.94921875 C141.93114731 92.85935226 141.93114731 92.85935226 141.32290649 93.78787231 C136.36124292 100.49578266 136.36124292 100.49578266 134 108 C141.33745493 111.66872747 152.89262067 107.01573557 160.30078125 104.640625 C188.00196142 95.23601246 216.9765136 79.87644874 231 53 C233.73934986 46.45927541 235.06810282 39.9148223 233 33 C230.06985784 26.54434814 225.81241252 22.05283751 219.5625 18.6875 C204.43038372 14.62766393 190.61238261 27.17143609 181.65234375 38.0078125 Z M11 25 C8.12152226 29.91683246 8.65794323 34.88378376 8.6875 40.4375 C8.69313965 41.51974854 8.6987793 42.60199707 8.70458984 43.71704102 C8.90508006 56.93649261 10.71643088 67.32088125 20.0859375 77.19921875 C24.9155227 81.79614952 30.17324851 85.65542019 35.6875 89.375 C36.30488037 89.79193115 36.92226074 90.2088623 37.55834961 90.63842773 C42.91853321 94.14913685 48.36597641 97.60309305 55 97 C59.5534437 88.1116779 58.03027598 74.14633865 55.375 64.875 C49.02926304 47.5624145 36.23684544 35.43595994 19.8828125 27.484375 C15.57473779 25.62997046 15.57473779 25.62997046 11 25 Z M-48.33203125 53.859375 C-50.31228806 56.40078187 -50.47259322 57.34006159 -50.125 60.5 C-48.8546561 69.26278037 -44.23809969 77.76190031 -38 84 C-33.50994714 86.7346824 -29.98571166 86.02233018 -25 85 C-17.55924307 83.02492392 -11.32716368 80.38034408 -5 76 C-6.25657444 62.62842108 -6.25657444 62.62842108 -14 52.1875 C-23.79363564 45.04630735 -38.81577495 46.27187416 -48.33203125 53.859375 Z M-24.4375 105.9375 C-25.01669189 106.34403809 -25.59588379 106.75057617 -26.19262695 107.16943359 C-30.10453096 110.0429049 -33.01794047 113.17070113 -36 117 C-33.73514361 122.79902791 -28.36356072 124.50560636 -23 127 C-7.92140962 133.35403733 6.8185473 138.3739803 22.94140625 132.3359375 C34.5786323 127.26885692 34.5786323 127.26885692 44 119 C44 117.68 44 116.36 44 115 C40.71975588 112.13575357 36.77625633 110.14855964 33 108 C32.40606445 107.65855957 31.81212891 107.31711914 31.20019531 106.96533203 C10.96752694 95.41678571 -4.36576404 91.84474765 -24.4375 105.9375 Z M172 211 C171.22248247 213.06390839 171.22248247 213.06390839 171 215 C176.41609942 220.05419416 181.9443288 224.79989913 187.8125 229.3125 C197.9119471 237.11461247 207.07119034 245.89496384 216 255 C218.69673739 257.70583263 221.40390681 260.40067357 224.12109375 263.0859375 C229.63907013 268.55127556 235.09111649 273.96908597 240 280 C241.65582236 275.03253291 240.14076062 270.15291312 239.3125 265.0625 C239.15072266 263.98419922 238.98894531 262.90589844 238.82226562 261.79492188 C235.62874524 241.83242926 227.95303074 226.24765201 211.4921875 214.3125 C200.81114087 206.98225367 183.28932579 201.92371822 172 211 Z M44.5 211.4375 C43.86054443 211.6221582 43.22108887 211.80681641 42.56225586 211.99707031 C40.367784 212.64325061 38.18416763 213.31983648 36 214 C35.17773926 214.24959473 34.35547852 214.49918945 33.50830078 214.75634766 C21.38459655 218.46340775 10.10205788 222.87126217 -1 229 C-2.43085937 229.78890625 -2.43085937 229.78890625 -3.890625 230.59375 C-9.65697304 233.91912862 -14.86340706 237.77699346 -20 242 C-20.67933594 242.53238281 -21.35867187 243.06476563 -22.05859375 243.61328125 C-31.09262566 250.99195449 -39.99824405 262.34372957 -41.23828125 274.296875 C-41.4745079 282.1047875 -39.56856145 286.89068877 -34.625 292.875 C-29.72445428 296.84210844 -24.85537669 297.46011415 -18.7109375 297.3125 C-3.94280243 295.61012132 8.66222285 284.65915774 17.8125 273.625 C41.26334011 244.96483067 41.26334011 244.96483067 56 212 C51.61879517 209.7194848 49.18198822 210.08246512 44.5 211.4375 Z M127.625 241.875 C123.48708195 247.33451066 123.48708195 247.33451066 123 254 C128.20016738 269.22271221 140.8104371 280.45858986 154.8125 287.625 C172.86804849 295.33411059 194.61255208 298.19048469 214.125 298.3125 C215.23524536 298.32083862 215.23524536 298.32083862 216.36791992 298.3293457 C220.05643249 298.27862811 222.86787692 298.03669143 226 296 C220.77632599 285.77976823 212.7126005 277.56759129 204.9375 269.25 C203.9470166 268.18676514 203.9470166 268.18676514 202.93652344 267.10205078 C199.07364065 263.01435931 195.07671253 259.20885782 190.8059082 255.54980469 C188.5239795 253.59148599 186.32969976 251.54449666 184.125 249.5 C174.37680326 240.72066074 161.30983584 230.2371803 147.875 228.625 C139.5413417 229.71199891 132.87559766 235.69617168 127.625 241.875 Z " fill="#000000" transform="translate(70,1)"/>
</svg>
