<?xml version="1.0" encoding="UTF-8"?>
<svg version="1.1" xmlns="http://www.w3.org/2000/svg" width="512" height="512">
<path d="M0 0 C2.11973336 -0.00407692 4.23946459 -0.00942501 6.35919189 -0.01593018 C12.057562 -0.02947647 17.75576713 -0.02435814 23.45413971 -0.01479292 C29.45364281 -0.00712991 35.45313298 -0.01426019 41.45263672 -0.01895142 C51.5224864 -0.0243898 61.59226979 -0.01726793 71.66210938 -0.00292969 C83.25866191 0.01339305 94.85505614 0.00810319 106.45160484 -0.0084089 C116.4573113 -0.02207866 126.46297045 -0.02391672 136.46868324 -0.0160929 C142.42313858 -0.01144643 148.37751982 -0.01070729 154.33197021 -0.02070236 C159.93332987 -0.02945014 165.53448794 -0.02320936 171.13582611 -0.00601959 C173.17580584 -0.00209607 175.21580292 -0.00311655 177.25577545 -0.00980759 C213.99153067 -0.11907235 247.12861585 9.55198853 274.1328125 35.38818359 C274.79539062 35.98759766 275.45796875 36.58701172 276.140625 37.20458984 C298.10084398 57.7867384 310.87921361 89.70455133 312.22895491 119.51132774 C312.26923746 121.80433033 312.28051152 124.09555896 312.27998352 126.38891602 C312.28366021 127.26086514 312.2873369 128.13281427 312.291125 129.0311861 C312.30208424 131.93534764 312.30599253 134.8394733 312.30981445 137.74365234 C312.31608537 139.83394482 312.32273272 141.92423619 312.32972717 144.01452637 C312.35070955 150.86823764 312.36112974 157.72194897 312.37109375 164.57568359 C312.37514462 166.94511934 312.37926164 169.31455496 312.38344383 171.68399048 C312.40248916 182.82832213 312.41671699 193.97264721 312.4250558 205.116992 C312.43480133 217.92614482 312.46105332 230.7351236 312.50155669 243.5442152 C312.5318738 253.47757953 312.54653968 263.41089445 312.54983681 273.34430408 C312.55217113 279.26056979 312.56091708 285.17664947 312.58629799 291.09286499 C312.60985566 296.67441072 312.61370261 302.25565163 312.60353661 307.8372345 C312.60304765 309.86544316 312.60917414 311.89366826 312.62309265 313.92182922 C312.86201004 350.85869324 303.21046433 385.51700459 277.671875 412.95068359 C247.31644012 442.09190108 209.48424031 450.54604207 168.62084961 450.53344727 C166.6696364 450.53644451 164.71842377 450.53984833 162.76721191 450.54362488 C157.49615054 450.55241296 152.22510542 450.55480083 146.95403743 450.55544066 C143.65120131 450.55615428 140.34836924 450.5582945 137.04553413 450.56093788 C125.49527858 450.57017512 113.94503452 450.57427493 102.39477539 450.57348633 C91.67374727 450.57288643 80.95276961 450.58342524 70.23175424 450.59922999 C60.99052507 450.61236172 51.74931228 450.61766785 42.50807387 450.61703092 C37.0051248 450.61677752 31.5022206 450.61954017 25.99928093 450.63020897 C20.81583543 450.63998493 15.63247681 450.63990499 10.44902802 450.63269234 C8.56224247 450.63165809 6.67545123 450.63393906 4.78867531 450.6400528 C-35.56255702 450.76218204 -72.54385109 441.51206684 -102.0546875 412.63818359 C-130.23278607 384.15098755 -138.21512336 346.55259912 -138.12597656 307.72607422 C-138.12869387 305.71176528 -138.13225892 303.69745734 -138.13659668 301.68315125 C-138.14563499 296.26374259 -138.14221211 290.84441096 -138.13583851 285.42500114 C-138.1307338 279.72217494 -138.13548228 274.01935482 -138.13861084 268.31652832 C-138.14223755 258.74421011 -138.1374855 249.17192287 -138.12792969 239.59960938 C-138.11704766 228.57226087 -138.12057416 217.54498635 -138.1315825 206.51763964 C-138.1406924 197.00712471 -138.14192261 187.49663191 -138.13670516 177.98611403 C-138.13360575 172.32457741 -138.13311978 166.66307545 -138.13977814 161.00154114 C-138.14560514 155.67603447 -138.14145795 150.35062211 -138.12998962 145.0251255 C-138.12737142 143.08428414 -138.12805873 141.14343468 -138.13251495 139.20259666 C-138.21475121 99.70940241 -128.60709029 63.62279985 -100.3203125 34.82275391 C-73.20567939 8.05434259 -36.89983034 -0.12103013 0 0 Z M-43.8671875 50.38818359 C-44.76824219 50.76974609 -45.66929688 51.15130859 -46.59765625 51.54443359 C-65.18112575 59.54173357 -79.56137757 73.34490478 -87.58984375 92.04833984 C-94.26092552 109.49107658 -95.16996646 126.781263 -95.12597656 145.20239258 C-95.12869368 147.13773733 -95.13225863 149.07308105 -95.13659668 151.00842285 C-95.14563785 156.21715465 -95.14221074 161.42580634 -95.13583851 166.63453937 C-95.13073459 172.11582306 -95.13548213 177.59710041 -95.13861084 183.0783844 C-95.14223809 192.28005184 -95.13748442 201.48168707 -95.12792969 210.68334961 C-95.1170508 221.28181017 -95.12057166 231.88019373 -95.1315825 242.47865242 C-95.14069476 251.61972375 -95.14192138 260.76077206 -95.13670516 269.90184647 C-95.13360661 275.34318652 -95.13311727 280.78449052 -95.13977814 286.22582817 C-95.14560848 291.34530823 -95.14145202 296.46469024 -95.12998962 301.58415985 C-95.12737303 303.44921011 -95.12805587 305.3142688 -95.13251495 307.17931557 C-95.19549801 336.22857213 -90.71065143 362.77865055 -69.8671875 384.38818359 C-56.24358217 397.4641063 -38.11671421 404.50751797 -19.54711914 406.50482178 C-18.77389596 406.58851257 -18.00067278 406.67220336 -17.20401859 406.75843024 C-8.24037502 407.65149239 0.69967397 407.66915959 9.69921875 407.64697266 C11.58397557 407.64969131 13.46873132 407.65325709 15.35348511 407.65759277 C20.41547692 407.66661522 25.47738609 407.66321495 30.53937912 407.6568346 C35.87203929 407.65172148 41.20469303 407.65648066 46.53735352 407.65960693 C55.48748018 407.66323125 64.43757369 407.65848798 73.38769531 407.64892578 C83.69079909 407.63804422 93.99382368 407.64157089 104.29692554 407.65257859 C113.1909213 407.66169542 122.0848934 407.66291537 130.97889233 407.65770125 C136.26988711 407.6546056 141.56084485 407.65410524 146.85183716 407.66077423 C151.8293536 407.66661146 156.80676933 407.66243596 161.78427505 407.65098572 C163.59569254 407.64837285 165.4071187 407.6490453 167.21853256 407.65351105 C176.13330331 407.67343896 184.93948464 407.46582827 193.80883789 406.50872803 C194.51885421 406.43282763 195.22887053 406.35692723 195.96040249 406.27872682 C218.31377666 403.59283848 237.76855529 393.01668738 252.296875 375.82177734 C265.37323806 358.48864078 271.31101017 339.28171199 271.26652527 317.73139954 C271.26879083 316.90871006 271.27105638 316.08602058 271.27339059 315.23840111 C271.27967323 312.50747085 271.27890494 309.77659095 271.27807617 307.0456543 C271.28107128 305.07691891 271.28447461 303.10818411 271.28825378 301.13945007 C271.29706293 295.80863136 271.29943062 290.47782871 271.30006957 285.14700341 C271.30078191 281.81088804 271.30291972 278.47477671 271.30556679 275.13866234 C271.31481051 263.48395912 271.31890296 251.82926731 271.31811523 240.17456055 C271.31751494 229.33704815 271.32805984 218.49958562 271.3438589 207.66208583 C271.35696654 198.33607034 271.36229777 189.01007107 271.36165982 179.68404645 C271.36140575 174.12364426 271.36420645 168.5632864 271.37483788 163.00289345 C271.38457305 157.76861539 271.38456112 152.53442352 271.37732124 147.30014229 C271.37628206 145.3886833 271.37859827 143.47721879 271.3846817 141.5657692 C271.47051043 112.70847183 265.60581637 87.71628607 245.2578125 66.07568359 C233.33765013 54.71978927 217.86839812 49.03990178 202.1328125 45.38818359 C201.46750755 45.21913838 200.8022026 45.05009316 200.11673689 44.87592536 C194.7310069 43.56443277 189.72327338 43.10066452 184.19250488 43.12748718 C182.91264308 43.12174886 182.91264308 43.12174886 181.60692549 43.11589462 C178.77239128 43.10564711 175.93806279 43.10954106 173.10351562 43.11352539 C171.06082982 43.10917415 169.01814564 43.10398963 166.97546387 43.09803772 C161.44195552 43.08467578 155.90851561 43.0840663 150.37499428 43.08660102 C145.74348769 43.08767337 141.1119948 43.08278022 136.48049116 43.0779956 C125.54232217 43.06690851 114.60418751 43.06645748 103.66601562 43.07250977 C92.41613979 43.07853938 81.16638935 43.06626241 69.9165349 43.0449397 C60.23208337 43.02726503 50.54767153 43.02133185 40.86320448 43.02457744 C35.09086161 43.02638228 29.31860804 43.0238351 23.54627991 43.0098629 C18.10922313 42.99719472 12.67235994 42.99931288 7.23530579 43.01227379 C5.25254244 43.01462028 3.26976509 43.01197509 1.28701782 43.00365067 C-14.30205474 42.94298119 -29.53378824 43.64305453 -43.8671875 50.38818359 Z " fill="#000000" transform="translate(167.8671875,42.61181640625)"/>
<path d="M0 0 C0.98870087 0.00081573 0.98870087 0.00081573 1.99737549 0.00164795 C12.9753379 0.04317703 22.99792344 0.98375065 33.4375 4.375 C34.11377441 4.58930664 34.79004883 4.80361328 35.48681641 5.02441406 C65.66915655 14.83528119 89.69372546 35.20569041 104.59692383 63.26757812 C112.8592445 79.79644896 116.83450552 97.15961215 116.75 115.5625 C116.74436035 116.84608398 116.7387207 118.12966797 116.73291016 119.45214844 C116.33335818 150.69632142 103.48163191 177.73346522 82.125 200.125 C58.34095414 223.0668346 27.20458343 232.94451422 -5.40625 232.5859375 C-37.67560961 231.78513538 -65.54292549 216.25957609 -87.5625 193.3125 C-100.59148192 178.62677155 -109.11253922 160.40473179 -113.5625 141.375 C-113.78808594 140.41207031 -114.01367188 139.44914063 -114.24609375 138.45703125 C-120.01675595 108.33019479 -113.23316007 76.86032851 -96.58984375 51.3515625 C-78.02430651 24.99809613 -51.98882868 7.75130086 -20.48828125 1.26171875 C-13.67274383 0.08208399 -6.90331836 -0.00965008 0 0 Z M-49.5625 62.375 C-50.19671875 62.92800781 -50.8309375 63.48101562 -51.484375 64.05078125 C-56.58939662 68.78309111 -60.08068975 74.38829029 -63.5625 80.375 C-64.02785156 81.14457031 -64.49320313 81.91414063 -64.97265625 82.70703125 C-73.70746597 98.38694961 -75.14522199 118.29577 -70.53344727 135.47021484 C-64.58858966 155.18507871 -52.48748322 170.94899682 -34.4765625 181.1171875 C-15.9545367 190.3096003 4.52128216 192.49275598 24.31103516 186.14111328 C43.20689145 179.33339835 57.92064869 166.20095044 66.9921875 148.30859375 C68.28969578 145.36424803 69.40075026 142.42019825 70.4375 139.375 C70.75589844 138.50230469 71.07429687 137.62960937 71.40234375 136.73046875 C76.99395542 118.71877956 74.08538362 98.52284948 65.62084961 82.04907227 C62.74067887 76.68862766 59.54500712 71.88537562 55.4375 67.375 C54.76074219 66.61832031 54.08398438 65.86164063 53.38671875 65.08203125 C41.38724952 52.3579049 24.62772655 43.9012809 7.08984375 43.0546875 C-14.59605713 42.4313327 -33.14905722 47.58518915 -49.5625 62.375 Z " fill="#000000" transform="translate(254.5625,150.625)"/>
<path d="M0 0 C7.93413692 4.66130544 12.01503274 10.52166072 14.875 19.1015625 C15.76088541 27.82971222 14.57340183 35.38429509 9.07421875 42.3984375 C3.1623116 48.68916589 -2.90365338 51.52654959 -11.50390625 52.16796875 C-19.25440228 51.97160745 -26.10094689 48.88832501 -31.71484375 43.60546875 C-36.8535937 38.16517846 -39.1550747 32.11600262 -39.5625 24.6640625 C-39.25703583 17.05402044 -35.98142288 10.11746149 -30.83984375 4.5703125 C-22.56082112 -2.52060438 -9.99676616 -4.45689158 0 0 Z " fill="#000000" transform="translate(387.125,123.8984375)"/>
<path d="" fill="#000000" transform="translate(0,0)"/>
<path d="" fill="#000000" transform="translate(0,0)"/>
<path d="" fill="#000000" transform="translate(0,0)"/>
<path d="" fill="#000000" transform="translate(0,0)"/>
<path d="" fill="#000000" transform="translate(0,0)"/>
<path d="" fill="#000000" transform="translate(0,0)"/>
<path d="" fill="#000000" transform="translate(0,0)"/>
<path d="" fill="#000000" transform="translate(0,0)"/>
<path d="" fill="#000000" transform="translate(0,0)"/>
<path d="" fill="#000000" transform="translate(0,0)"/>
<path d="" fill="#000000" transform="translate(0,0)"/>
<path d="" fill="#000000" transform="translate(0,0)"/>
<path d="" fill="#000000" transform="translate(0,0)"/>
<path d="" fill="#000000" transform="translate(0,0)"/>
<path d="" fill="#000000" transform="translate(0,0)"/>
<path d="" fill="#000000" transform="translate(0,0)"/>
<path d="" fill="#000000" transform="translate(0,0)"/>
<path d="" fill="#000000" transform="translate(0,0)"/>
<path d="" fill="#000000" transform="translate(0,0)"/>
<path d="" fill="#000000" transform="translate(0,0)"/>
<path d="" fill="#000000" transform="translate(0,0)"/>
<path d="" fill="#000000" transform="translate(0,0)"/>
<path d="" fill="#000000" transform="translate(0,0)"/>
<path d="" fill="#000000" transform="translate(0,0)"/>
<path d="" fill="#000000" transform="translate(0,0)"/>
<path d="" fill="#000000" transform="translate(0,0)"/>
<path d="" fill="#000000" transform="translate(0,0)"/>
<path d="" fill="#000000" transform="translate(0,0)"/>
<path d="" fill="#000000" transform="translate(0,0)"/>
<path d="" fill="#000000" transform="translate(0,0)"/>
<path d="" fill="#000000" transform="translate(0,0)"/>
</svg>
