<?xml version="1.0" encoding="UTF-8"?>
<svg version="1.1" xmlns="http://www.w3.org/2000/svg" width="875" height="875">
<path d="M0 0 C30.18474672 0.46438072 64.60333186 31.53177687 85.25 51.375 C85.84989746 51.94766602 86.44979492 52.52033203 87.06787109 53.11035156 C107.64170159 72.84904316 124.61830157 95.51547672 125.31561279 125.16482544 C125.31593486 128.29937964 125.28417643 131.43213741 125.2421875 134.56640625 C125.22467866 136.91601136 125.20776967 139.26562101 125.19140625 141.61523438 C125.16042768 145.28422782 125.12480496 148.95299094 125.07861328 152.62182617 C125.03616561 156.1867151 125.01281164 159.75133315 124.9921875 163.31640625 C124.97356659 164.40619278 124.95494568 165.49597931 124.9357605 166.61878967 C124.91324734 173.34119909 125.1083662 179.95180467 129.90625 185.1796875 C139.48288067 190.73900276 150.12195595 190.71755988 160.9375 190.6875 C162.10861328 190.70361328 163.27972656 190.71972656 164.48632812 190.73632812 C174.85185843 190.74217445 182.62597995 188.6562134 190.25 181.375 C203.67199992 166.24277751 214.28383736 148.47051732 225.26806641 131.55615234 C240.72266579 107.77401658 256.22933175 84.0338913 274.01953125 61.90966797 C275.15769711 60.49012222 276.2825815 59.05995508 277.40625 57.62890625 C297.83833229 31.97444472 324.15352426 7.02897279 358.13818359 2.59033203 C375.66235868 0.80347395 394.33929816 2.48081728 408.81738281 13.57617188 C423.60725669 25.75181117 433.62690286 41.17210562 436.25 60.375 C438.2867724 83.90371955 431.86456498 108.3874572 416.94921875 126.99804688 C414.17400237 130.2439858 411.21295278 133.30211434 408.25 136.375 C407.36107608 137.44693767 406.48293851 138.52810546 405.625 139.625 C403.09198948 142.55795955 400.39023636 144.98476251 397.44140625 147.48828125 C396.00487901 148.72507743 394.59435966 149.99288754 393.21484375 151.29296875 C374.28639439 169.08637882 351.65291213 183.40144315 329.25 196.375 C328.57050293 196.77380371 327.89100586 197.17260742 327.19091797 197.58349609 C299.15235744 213.93157234 264.39748672 218.17846952 232.92959595 224.1459198 C231.31635194 224.4547567 229.70438028 224.77032421 228.09384155 225.0929718 C224.39128314 225.82757959 220.74664922 226.45841887 216.98706055 226.81176758 C209.61967425 227.6571285 209.61967425 227.6571285 203.8425293 231.94311523 C201.74632067 235.33686645 200.05083661 238.80103029 198.4375 242.4375 C197.814201 243.72940392 197.18514088 245.01854311 196.55053711 246.30493164 C195.30445997 248.84278321 194.08342394 251.3900768 192.88378906 253.95019531 C190.8662624 258.17940392 188.63997576 262.24854381 186.3125 266.3125 C185.52995815 267.71282052 184.74876323 269.1138944 183.96875 270.515625 C182.46535679 273.2055424 180.95865434 275.89354472 179.44921875 278.58007812 C163.92064181 304.00089489 163.92064181 304.00089489 153.25 331.375 C153.83777725 331.48525009 154.4255545 331.59550018 155.03114319 331.70909119 C161.69600647 332.99609618 168.24443158 334.59327677 174.80859375 336.31640625 C175.89950821 336.60039276 176.99042267 336.88437927 178.11439514 337.17697144 C180.43968804 337.78256808 182.7646678 338.38936814 185.08935547 338.99728394 C188.71747193 339.94533184 192.34682714 340.88849297 195.9765625 341.83032227 C205.92453889 344.41316881 215.87130031 346.9995327 225.80177307 349.64900208 C229.04561725 350.51364947 232.29156561 351.37020659 235.53787231 352.22555542 C237.00038893 352.61360544 238.46174708 353.00605096 239.92184448 353.40310669 C241.91397921 353.94479674 243.9094288 354.47199225 245.90625 354.99609375 C246.99744141 355.2892749 248.08863281 355.58245605 249.21289062 355.88452148 C255.55181928 356.90822789 260.16920302 354.67451355 265.67578125 351.76953125 C267.12820639 351.02529534 268.5806821 350.28115812 270.03320312 349.53710938 C272.2808206 348.37339421 274.52657927 347.20623279 276.77075195 346.03588867 C299.67174432 334.13267769 324.1482396 325.02017189 350.01953125 332.859375 C364.49975215 337.78674468 378.00287914 345.27341626 390.25 354.375 C391.23226562 355.10332031 392.21453125 355.83164062 393.2265625 356.58203125 C422.22481631 379.24968036 436.71947612 414.59518765 441.25 450.375 C442.81697363 465.97234897 443.74248201 481.69886313 443.25 497.375 C443.23066406 498.19758301 443.21132813 499.02016602 443.19140625 499.86767578 C442.32330745 534.73843854 442.32330745 534.73843854 431.5625 546.25 C398.06092308 567.74157765 329.99574044 552.7386819 293.69042969 545.0534668 C279.53323948 541.8920746 266.39212183 537.48924919 253.25 531.375 C252.0640625 530.83875 250.878125 530.3025 249.65625 529.75 C231.25990485 521.02596003 214.11543459 507.11271766 201.25 491.375 C200.59257812 490.59382813 199.93515625 489.81265625 199.2578125 489.0078125 C183.60487947 470.04708984 181.99252875 452.45662816 183.25 428.375 C184.80671206 413.88848362 191.76867464 401.27954096 200.44921875 389.8515625 C203.42875932 385.75388632 206.25 381.56027704 206.25 376.375 C194.1711548 372.97331538 182.20620543 371.1429323 169.75 369.75 C167.98295939 369.54524819 166.2160314 369.33952208 164.44921875 369.1328125 C161.01871335 368.73230028 157.58770646 368.33660963 154.15625 367.94433594 C147.18076939 367.14178287 140.21516706 366.26216552 133.25 365.375 C132.98227783 366.08857666 132.71455566 366.80215332 132.4387207 367.53735352 C131.22364068 370.43792346 129.80749071 373.0574972 128.23046875 375.77734375 C127.62710693 376.82108154 127.02374512 377.86481934 126.40209961 378.94018555 C125.75378174 380.05304932 125.10546387 381.16591309 124.4375 382.3125 C123.75838436 383.48273561 123.07943146 384.65306568 122.40063477 385.82348633 C120.35650629 389.34422663 118.30419958 392.86012569 116.25 396.375 C115.67185547 397.36435547 115.09371094 398.35371094 114.49804688 399.37304688 C110.77896454 405.72518632 107.02590126 412.05648711 103.25 418.375 C102.67362793 419.34099121 102.09725586 420.30698242 101.50341797 421.30224609 C94.14187606 433.61167667 86.63503264 445.73404755 78.25 457.375 C77.69280273 458.14859863 77.13560547 458.92219727 76.56152344 459.71923828 C69.7263508 469.16939641 62.78547644 478.46943693 55.25 487.375 C54.41339844 488.38433594 53.57679688 489.39367187 52.71484375 490.43359375 C43.61190359 501.37832239 34.28151392 512.32457081 23.25 521.375 C22.37214844 522.14070312 21.49429688 522.90640625 20.58984375 523.6953125 C0.11862331 541.33454592 -21.83546933 552.24109811 -49.2890625 550.60253906 C-66.39538212 549.02088332 -81.78218715 540.55059909 -93.0703125 527.7421875 C-105.47256497 511.56738675 -111.04721351 491.15713422 -108.43359375 470.92578125 C-103.20391662 437.77064371 -83.01824265 414.58318814 -56.61328125 395.171875 C-55.32609957 394.23878445 -54.03840049 393.3064069 -52.75 392.375 C-51.83605469 391.69953125 -50.92210937 391.0240625 -49.98046875 390.328125 C-35.86587758 380.12254995 -20.28097759 372.16211968 -4.75 364.375 C-3.9559375 363.9728125 -3.161875 363.570625 -2.34375 363.15625 C22.16557684 350.90158658 49.52106975 342.98845235 76.25 337.375 C77.67753014 337.06941367 79.10493116 336.76322381 80.53222656 336.45654297 C85.18551614 335.45836459 89.84192908 334.47560319 94.5 333.5 C95.62622772 333.26318008 95.62622772 333.26318008 96.77520752 333.02157593 C98.91669594 332.57367311 101.05957142 332.13321255 103.203125 331.6953125 C104.44223633 331.44023926 105.68134766 331.18516602 106.95800781 330.92236328 C109.8095895 330.44822755 112.37050818 330.25962918 115.25 330.375 C115.51699707 329.66666016 115.78399414 328.95832031 116.05908203 328.22851562 C117.29804486 325.25988145 118.73832595 322.52804112 120.3046875 319.71875 C120.91328613 318.62473877 121.52188477 317.53072754 122.14892578 316.40356445 C122.80751205 315.22731743 123.46620603 314.05113071 124.125 312.875 C124.80597823 311.6539744 125.48680332 310.43286339 126.16748047 309.21166992 C130.18787466 302.00880544 134.26170574 294.83772546 138.375 287.6875 C144.33674558 277.31566855 150.05116475 266.81599769 155.69824219 256.27001953 C157.21186797 253.44614059 158.73459213 250.62730551 160.2578125 247.80859375 C161.17254358 246.10192067 162.08664187 244.39490823 163 242.6875 C163.62769287 241.53000244 163.62769287 241.53000244 164.26806641 240.34912109 C166.20248126 236.70541372 167.75760531 233.53573513 168.25 229.375 C162.07859714 226.38778829 156.05532757 224.32509853 149.375 222.8125 C148.47096436 222.60415527 147.56692871 222.39581055 146.63549805 222.18115234 C122.30620429 216.16322828 122.30620429 216.16322828 99.25 223.375 C94.01933238 227.12636943 89.24776897 231.35089403 84.5 235.6875 C58.68745418 259.0474519 34.3275645 269.01033899 -0.75 267.375 C-24.36050861 265.29266692 -47.4455272 257.4652112 -68.75 247.375 C-69.47171387 247.03807129 -70.19342773 246.70114258 -70.93701172 246.35400391 C-84.53230911 239.91044904 -96.56734618 231.12871315 -108.75 222.375 C-110.14292976 221.37978914 -111.53611476 220.38493531 -112.9296875 219.390625 C-113.86039063 218.72546875 -114.79109375 218.0603125 -115.75 217.375 C-112.19132348 211.5621136 -108.49603546 205.9319448 -104.375 200.5 C-102.83191595 198.45940437 -101.29030736 196.41769237 -99.75 194.375 C-99.32267578 193.80894043 -98.89535156 193.24288086 -98.45507812 192.65966797 C-97.16170904 190.93053151 -95.89127322 189.186543 -94.625 187.4375 C-93.85929687 186.39722656 -93.09359375 185.35695313 -92.3046875 184.28515625 C-90.52838202 181.58227641 -90.52838202 181.58227641 -90.91601562 179.05981445 C-91.95137962 175.72670618 -93.54149256 173.37095038 -95.5390625 170.5078125 C-96.32118614 169.37111466 -97.10290978 168.23414152 -97.88427734 167.09692383 C-98.29200378 166.50924225 -98.69973022 165.92156067 -99.11981201 165.31607056 C-111.54111575 147.34428928 -121.02440659 129.74220562 -121.75 107.375 C-121.80994141 105.71017578 -121.80994141 105.71017578 -121.87109375 104.01171875 C-122.08410719 92.54658364 -122.1154803 81.10723413 -113.75 72.375 C-110.61810872 69.916319 -107.30790584 68.14688424 -103.75 66.375 C-102.05810547 65.49328125 -102.05810547 65.49328125 -100.33203125 64.59375 C-82.37983097 55.51433821 -63.04252561 53.2361702 -43.10668945 52.8918457 C-35.86573909 52.67713947 -30.25322342 51.80888205 -24.9296875 46.6328125 C-22.64537528 43.21862542 -21.24063214 40.12063784 -19.875 36.25 C-19.63088379 35.57275879 -19.38676758 34.89551758 -19.13525391 34.19775391 C-17.69590213 30.17861997 -16.32690546 26.13566509 -14.953125 22.09375 C-14.49655518 20.76174561 -14.49655518 20.76174561 -14.03076172 19.40283203 C-13.43997374 17.672508 -12.85784079 15.93919744 -12.28564453 14.20263672 C-7.56032215 0.28405835 -7.56032215 0.28405835 0 0 Z M305.59375 73.34375 C303.41565492 75.97696942 301.32732664 78.661537 299.25 81.375 C298.1657786 82.74484961 297.07967415 84.11320989 295.9921875 85.48046875 C288.8877584 94.45289789 282.20087244 103.60720706 275.8046875 113.09326172 C273.38565669 116.6435541 270.91106733 120.15456203 268.4440918 123.67163086 C257.88039269 138.74998698 247.8502081 154.11937419 238.125 169.75 C237.58012939 170.62414551 237.03525879 171.49829102 236.47387695 172.39892578 C231.35994863 179.58333854 231.35994863 179.58333854 229.4375 187.6875 C230.13247578 189.57118462 230.13247578 189.57118462 232.25 190.375 C239.71764516 190.93909089 246.73389422 190.02470259 254 188.375 C254.98806641 188.15352295 255.97613281 187.9320459 256.99414062 187.70385742 C288.72319673 180.26139437 323.06675569 165.91473456 349.25 146.375 C349.76916992 145.99279297 350.28833984 145.61058594 350.82324219 145.21679688 C358.33146426 139.67239883 365.4659966 133.79288258 372.25 127.375 C373.14460937 126.54484375 374.03921875 125.7146875 374.9609375 124.859375 C385.9925775 114.29124929 394.13771934 102.36533129 400.25 88.375 C400.6109375 87.5603125 400.971875 86.745625 401.34375 85.90625 C404.72142897 76.77400687 405.02518757 64.07463796 401.75 54.875 C396.3101172 43.86255434 388.05571006 36.58091663 376.75 31.9375 C346.73678708 27.11394792 323.78433833 53.01309245 305.59375 73.34375 Z M13.66650391 44.60327148 C8.1767173 51.46976259 8.77736805 61.52002781 8.875 69.8125 C8.88370117 71.04299072 8.89240234 72.27348145 8.90136719 73.54125977 C9.28276497 97.48647519 13.68688966 119.03562355 31.25 136.375 C34.77009613 139.57299583 38.46274076 142.50350804 42.25 145.375 C42.90145996 145.87435059 43.55291992 146.37370117 44.22412109 146.88818359 C65.63228 163.56329858 65.63228 163.56329858 91.25 169.375 C99.02928218 149.11951055 96.2280554 124.06551972 88.25 104.375 C75.28617273 75.80166641 49.01503744 55.01658406 20.09765625 43.8984375 C17.48691296 43.15881889 15.87157883 42.89285953 13.66650391 44.60327148 Z M-76.6875 87.1875 C-77.73369507 87.54146851 -77.73369507 87.54146851 -78.80102539 87.90258789 C-83.87718391 89.74984519 -90.23108996 92.33717992 -92.75 97.375 C-94.43398795 111.49644181 -88.73860903 124.98088832 -80.75 136.375 C-73.36052266 145.83493402 -73.36052266 145.83493402 -62.625 150.375 C-51.14787181 151.19357675 -38.91606068 146.07706828 -28.4375 141.875 C-27.75099365 141.60300781 -27.0644873 141.33101562 -26.35717773 141.05078125 C-21.43837456 138.97380427 -16.22879718 136.41709706 -13.79296875 131.40625 C-13.73569865 128.69893603 -14.32360937 126.48037737 -15.0625 123.875 C-16.21281292 119.6537624 -17.02425233 115.58962184 -17.5625 111.25 C-19.08742866 101.82987619 -24.07291326 95.08527292 -31.33203125 89.06640625 C-45.22234254 79.34992032 -61.54370474 81.98858764 -76.6875 87.1875 Z M-52.75 188.375 C-53.79027344 189.16519531 -54.83054687 189.95539063 -55.90234375 190.76953125 C-61.0350812 194.81371499 -65.7087777 198.51783113 -68.75 204.375 C-68.52540124 207.44451632 -67.52096572 208.62973313 -65.34375 210.734375 C-44.49173935 227.74522579 -11.6227152 238.46040717 15.25 236.375 C33.29472406 234.16762877 59.12253132 223.33165906 71.0234375 209.28125 C72.37533382 207.39614476 72.37533382 207.39614476 72.875 205 C71.49935197 199.22227827 64.31130261 195.56750622 59.50512695 192.54541016 C19.34424561 168.12207074 -12.90011834 158.09283281 -52.75 188.375 Z M294.46484375 369.6875 C293.01094536 371.35191758 293.01094536 371.35191758 293.29296875 373.765625 C296.33511467 382.06012898 306.15648964 388.01138127 313.0390625 393.02734375 C321.67062635 399.33825601 329.98106657 405.9687432 337.84375 413.21875 C340.30154602 415.42119059 342.84599632 417.45728533 345.4375 419.5 C352.27328154 425.01933288 358.34784001 431.29443533 364.47998047 437.57324219 C368.38589847 441.54919734 372.34889158 445.46832328 376.3046875 449.39453125 C377.75088274 450.83334458 379.19659145 452.27264481 380.64208984 453.7121582 C381.626212 454.69125767 382.61123062 455.66945695 383.59716797 456.64672852 C388.76590901 461.7714325 393.85129788 466.91984562 398.58740234 472.4519043 C401.66860753 476.01587687 404.90408811 479.4376632 408.125 482.875 C408.80046875 483.60203125 409.4759375 484.3290625 410.171875 485.078125 C410.81382812 485.76390625 411.45578125 486.4496875 412.1171875 487.15625 C412.69581543 487.77564453 413.27444336 488.39503906 413.87060547 489.03320312 C415.04874194 490.49121173 415.04874194 490.49121173 416.25 490.375 C413.94762184 452.5752418 407.79637908 413.5805756 379.26953125 386.1484375 C361.01967885 370.12245493 340.89756513 360.358187 316.26025391 361.234375 C308.57887698 361.77171689 300.64868985 365.14095232 294.46484375 369.6875 Z M-43.75 425.375 C-44.52988281 426.01953125 -45.30976563 426.6640625 -46.11328125 427.328125 C-61.49263109 440.39658808 -76.15673225 460.18344429 -78.06640625 480.7890625 C-78.45797029 492.38441047 -75.63020505 501.75779736 -67.75 510.375 C-61.39686173 516.95236668 -54.590721 519.71906277 -45.50390625 520.37109375 C-19.9996995 520.40726993 0.28529216 504.9572233 17.6953125 487.9921875 C30.93554272 473.97024627 41.43788251 456.95626182 52.0625 440.9375 C52.66574097 440.03034241 53.26898193 439.12318481 53.89050293 438.1885376 C78.07739069 405.84827998 78.07739069 405.84827998 92.25 369.375 C63.39704459 350.13969639 -22.60458624 407.4095942 -43.75 425.375 Z M214.22265625 426.9140625 C210.1220997 432.99253456 209.10049898 438.14229888 210.25 445.375 C214.97110252 466.57367602 235.96311288 485.25444975 253.5 496.625 C258.34104104 499.46685963 263.27582188 501.87640573 268.4375 504.0625 C269.0469043 504.32385742 269.65630859 504.58521484 270.28417969 504.85449219 C284.27722204 510.47838929 299.27507858 513.41972831 314.0625 516.0625 C314.89338135 516.21252472 315.7242627 516.36254944 316.58032227 516.51712036 C334.52634991 519.74275152 351.95024879 521.50903999 370.1875 521.6875 C371.48751953 521.70546631 372.78753906 521.72343262 374.12695312 521.74194336 C375.35220703 521.74073486 376.57746094 521.73952637 377.83984375 521.73828125 C378.93159912 521.74126221 380.02335449 521.74424316 381.14819336 521.74731445 C384.70675022 521.32017559 387.15253089 520.13538185 390.25 518.375 C386.74679337 503.58368312 371.86194051 490.79386953 361.73339844 479.97167969 C359.46177074 477.5265768 357.23596826 475.04019456 355 472.5625 C350.46653932 467.61451389 345.79857748 462.81667504 341.0625 458.0625 C340.08265137 457.07576294 340.08265137 457.07576294 339.08300781 456.0690918 C335.21356065 452.21182804 331.22811343 448.549966 327.09204102 444.98071289 C324.59853609 442.80711688 322.21289352 440.52555879 319.8125 438.25 C302.06502517 421.81212056 277.39029591 402.96486157 252.9375 398.8125 C237.47072749 401.17183818 223.61506685 415.15092784 214.22265625 426.9140625 Z " fill="#FFFFFF" transform="translate(276.75,138.625)"/>
</svg>
